<svg xmlns="http://www.w3.org/2000/svg" xmlns:xlink="http://www.w3.org/1999/xlink"><symbol id="email" viewBox="0 0 24 24"><g fill="currentColor"><path d="M22 6c0-1.1-.9-2-2-2H4c-1.1 0-2 .9-2 2v12c0 1.1.9 2 2 2h16c1.1 0 2-.9 2-2V6zm-2 0-8 5-8-5h16zm0 12H4V8l8 5 8-5v10z" fill="currentColor"/></g></symbol><symbol id="github" viewBox="0 0 24 24"><g fill="currentColor"><path d="M12 2C6.475 2 2 6.475 2 12a9.994 9.994 0 0 0 6.838 9.488c.5.087.687-.213.687-.476 0-.237-.013-1.024-.013-1.862-2.512.463-3.162-.612-3.362-1.175-.113-.288-.6-1.175-1.025-1.413-.35-.187-.85-.65-.013-.662.788-.013 1.35.725 1.538 1.025.9 1.512 2.338 1.087 2.912.825.088-.65.35-1.087.638-1.337-2.225-.25-4.55-1.113-4.55-4.938 0-1.088.387-1.987 1.025-2.688-.1-.25-.45-1.275.1-2.65 0 0 .837-.262 2.75 1.026a9.28 9.28 0 0 1 2.5-.338c.85 0 1.7.112 2.5.337 1.912-1.3 2.75-1.024 2.75-1.024.55 1.375.2 2.4.1 2.65.637.7 1.025 1.587 1.025 2.687 0 3.838-2.337 4.688-4.562 4.938.362.312.675.912.675 1.85 0 1.337-.013 2.412-.013 2.75 0 .262.188.574.688.474A10.016 10.016 0 0 0 22 12c0-5.525-4.475-10-10-10Z" fill="currentColor"/></g></symbol><symbol id="moon" viewBox="0 0 24 24"><g fill="currentColor"><path d="M11.38 2.019a7.5 7.5 0 1 0 10.6 10.6C21.662 17.854 17.316 22 12.001 22 6.477 22 2 17.523 2 12c0-5.315 4.146-9.661 9.38-9.981Z" fill="currentColor"/></g></symbol><symbol id="skype" viewBox="0 0 512 512"><g fill="currentColor"><path d="M467.16 303.6a205.69 205.69 0 0 0 4.9-45.15c0-116.32-95.69-210.7-213.79-210.7a221.83 221.83 0 0 0-36.52 3A123.58 123.58 0 0 0 155.93 32C87.55 32 32 86.72 32 154.15A119.56 119.56 0 0 0 49 216a211.16 211.16 0 0 0-4.32 42.35c0 116.44 95.69 210.7 213.67 210.7a214 214 0 0 0 39.09-3.5A125.45 125.45 0 0 0 356.07 480C424.57 480 480 425.28 480 357.85a118 118 0 0 0-12.84-54.25zM368 359c-9.92 13.76-24.51 24.73-43.41 32.43S283.36 403 257.69 403c-30.69 0-56.36-5.37-76.55-15.87a101 101 0 0 1-35.24-30.8c-9.11-12.83-13.66-25.66-13.66-38 0-7.7 3-14.35 8.87-19.95 5.84-5.37 13.42-8.17 22.29-8.17 7.35 0 13.65 2.1 18.79 6.42 4.9 4.08 9.1 10.15 12.48 18.08A108.09 108.09 0 0 0 207 336.15q6.32 8.22 17.86 13.65c7.82 3.62 18.2 5.48 31 5.48 17.62 0 32.09-3.73 42.94-11.08 10.74-7.12 15.88-15.75 15.88-26.25 0-8.28-2.69-14.82-8.29-19.95-5.83-5.37-13.42-9.57-22.87-12.37-9.69-3-22.87-6.18-39.21-9.56-22.17-4.67-41-10.27-56-16.57-15.28-6.42-27.65-15.4-36.76-26.48-9.22-11.32-13.77-25.55-13.77-42.24a67.86 67.86 0 0 1 14.47-42.58c9.57-12.25 23.46-21.82 41.55-28.35 17.74-6.53 38.86-9.8 62.66-9.8 19.14 0 35.83 2.22 49.83 6.42s25.91 10.15 35.36 17.38 16.34 14.93 20.77 23 6.66 16.22 6.66 24c0 7.46-2.92 14.35-8.76 20.3a29.65 29.65 0 0 1-21.94 9.1c-7.93 0-14.12-1.87-18.43-5.6-4-3.5-8.17-8.87-12.72-16.69-5.37-9.91-11.79-17.85-19.14-23.45-7.24-5.36-19.14-8.16-35.71-8.16-15.29 0-27.77 3-37 9-8.87 5.72-13.19 12.37-13.19 20.18a18.26 18.26 0 0 0 4.32 12.25 38.13 38.13 0 0 0 12.72 9.57 90.14 90.14 0 0 0 17.15 6.53c6 1.64 15.87 4.09 29.53 7.12 17.38 3.62 33.25 7.82 47.26 12.13 14.24 4.55 26.49 10 36.52 16.45a72.93 72.93 0 0 1 24.16 25.09c5.72 10 8.64 22.63 8.64 37.1A75.09 75.09 0 0 1 368 359z" fill="currentColor"/></g></symbol><symbol id="sun" viewBox="0 0 24 24"><g fill="currentColor"><path d="M12 18a6 6 0 1 1 0-12 6 6 0 0 1 0 12ZM11 1h2v3h-2V1Zm0 19h2v3h-2v-3ZM3.515 4.929l1.414-1.414L7.05 5.636 5.636 7.05 3.515 4.93v-.001ZM16.95 18.364l1.414-1.414 2.121 2.121-1.414 1.414-2.121-2.121Zm2.121-14.85 1.414 1.415-2.121 2.121-1.414-1.414 2.121-2.121v-.001ZM5.636 16.95l1.414 1.414-2.121 2.121-1.414-1.414 2.121-2.121ZM23 11v2h-3v-2h3ZM4 11v2H1v-2h3Z" fill="currentColor"/></g></symbol></svg>